<?xml version="1.0" encoding="UTF-8" standalone="no"?>
<!DOCTYPE svg PUBLIC "-//W3C//DTD SVG 1.1//EN" "http://www.w3.org/Graphics/SVG/1.1/DTD/svg11.dtd">
<svg width="100%" height="100%" viewBox="0 0 400 400" version="1.1" xmlns="http://www.w3.org/2000/svg" xmlns:xlink="http://www.w3.org/1999/xlink" xml:space="preserve" xmlns:serif="http://www.serif.com/" style="fill-rule:evenodd;clip-rule:evenodd;stroke-linejoin:round;stroke-miterlimit:2;">
    <rect x="0" y="-1.616" width="400" height="403.231" style="fill:white;"/>
    <path d="M144.392,194.789L44.468,194.789L59.465,167.893L129.404,167.893L144.392,194.789ZM144.392,205.983L129.404,232.879L59.465,232.879L44.468,205.983L144.392,205.983ZM355.532,200.467L340.1,227.927L321.129,194.789L207.484,194.789L222.482,167.893L337.38,167.893L355.532,200.467ZM315.218,205.983L330.208,232.879L222.482,232.879L207.484,205.983L315.218,205.983ZM220.342,249.292L270.304,335.829L239.514,336.289L204.543,275.721L220.342,249.292ZM230.036,243.695L260.823,243.228L295.792,303.796L279.999,330.233L230.036,243.695ZM119.689,63.601L151.187,63.235L131.974,96.233L188.796,194.652L158.004,195.112L100.556,95.608L119.689,63.601ZM144.623,95.755L160.422,69.327L214.284,162.619L198.49,189.055L144.623,95.755ZM229.866,156.186L279.828,69.649L295.622,96.086L260.653,156.654L229.866,156.186ZM220.171,150.589L204.373,124.161L239.342,63.591L270.133,64.053L220.171,150.589ZM119.379,336.199L103.313,309.103L141.496,309.244L198.32,210.825L214.113,237.262L156.664,336.765L119.379,336.199ZM134.759,298.529L103.971,298.062L157.833,204.769L188.625,205.229L134.759,298.529Z" style="fill:rgb(32,79,245);"/>
</svg>
